<?xml version="1.0" standalone="no"?>
<!DOCTYPE svg PUBLIC "-//W3C//DTD SVG 20010904//EN"
 "http://www.w3.org/TR/2001/REC-SVG-20010904/DTD/svg10.dtd">
<svg version="1.0" xmlns="http://www.w3.org/2000/svg"
 width="26288.000000pt" height="32768.000000pt" viewBox="0 0 26288.000000 32768.000000"
 preserveAspectRatio="xMidYMid meet">

<g transform="translate(0.000000,32768.000000) scale(0.100000,-0.100000)"
fill="#000000" stroke="none">
<path d="M130765 325833 c-3079 -27 -6370 -304 -9485 -798 -9883 -1568 -19301
-5420 -27445 -11225 -5648 -4026 -10590 -8902 -14671 -14475 -5692 -7773
-9580 -16715 -11383 -26181 -633 -3321 -1014 -6793 -1111 -10109 -6 -198 -13
-400 -16 -450 -3 -49 -8 -4066 -12 -8925 l-7 -8835 -24670 -5 c-18997 -5
-24707 -9 -24830 -18 -424 -32 -578 -45 -795 -68 -4448 -467 -8500 -2753
-11207 -6324 -1791 -2364 -2912 -5213 -3207 -8155 -24 -243 -43 -487 -68 -880
-16 -258 -25 -178549 -8 -179595 16 -1039 47 -1814 110 -2715 513 -7326 2659
-14400 6303 -20770 2480 -4337 5626 -8270 9337 -11676 2888 -2650 6095 -4945
9545 -6832 911 -498 2001 -1046 2950 -1485 5430 -2508 11316 -3997 17280
-4371 587 -37 1093 -60 1835 -83 599 -19 163852 -19 164455 0 963 30 1686 67
2475 127 10308 789 20079 4832 27917 11552 2103 1804 4090 3828 5849 5958
2518 3049 4657 6399 6361 9960 2488 5200 4030 10790 4557 16520 92 995 136
1713 188 3045 17 424 25 179665 8 180145 -56 1628 -331 3142 -849 4675 -459
1361 -1119 2690 -1919 3870 -1594 2350 -3766 4236 -6307 5476 -2022 987 -4158
1530 -6425 1634 -140 6 -8733 10 -24747 10 l-24533 0 0 8053 c0 4428 -2 8273
-5 8542 -16 1418 -51 2453 -125 3640 -600 9633 -3347 19016 -8038 27455 -3682
6624 -8501 12558 -14222 17510 -4524 3917 -9571 7188 -15000 9723 -7654 3573
-15923 5614 -24360 6012 -744 35 -1352 53 -2205 65 -618 9 -820 9 -1520 3z
m1305 -32403 c3337 -72 6504 -618 9630 -1659 2227 -742 4351 -1717 6366 -2922
2600 -1554 4999 -3496 7072 -5723 3028 -3252 5338 -7057 6826 -11237 1055
-2965 1671 -6074 1831 -9229 41 -816 40 -655 40 -9410 l0 -8415 -32398 -3
-32397 -2 3 8597 c2 6409 6 8657 15 8828 44 853 65 1171 112 1700 441 4876
1975 9571 4500 13775 1826 3040 4152 5771 6870 8066 2749 2321 5881 4175 9245
5472 3118 1202 6412 1916 9745 2112 906 53 1693 68 2540 50z m-65427 -89447
c2 -6432 6 -8487 15 -8613 7 -91 19 -255 27 -365 226 -2967 1260 -5810 2990
-8220 949 -1323 2101 -2502 3400 -3480 2310 -1739 5076 -2839 7945 -3159 1949
-217 3878 -88 5779 389 3608 904 6809 3043 9033 6035 1666 2242 2732 4889
3078 7642 50 402 77 699 112 1253 9 145 13 2190 15 8578 l3 8387 32400 0
32400 0 0 -8327 c0 -5384 4 -8406 10 -8548 52 -1146 205 -2199 477 -3280 900
-3586 3005 -6759 5953 -8975 3434 -2581 7750 -3694 12010 -3099 3896 544 7460
2492 10028 5479 2098 2441 3431 5477 3806 8670 43 360 69 681 98 1170 8 143
12 2435 15 8553 l3 8357 16200 0 16200 0 0 -81192 c0 -53872 -3 -81272 -10
-81428 -67 -1570 -335 -3040 -820 -4500 -1140 -3432 -3400 -6381 -6415 -8375
-1119 -739 -2336 -1342 -3603 -1784 -1580 -551 -3204 -849 -4912 -901 -452
-14 -162430 -14 -162885 0 -2619 79 -5114 756 -7379 2003 -1655 910 -3128
2099 -4392 3543 -1081 1235 -2007 2710 -2665 4245 -621 1451 -1026 2970 -1208
4539 -52 442 -86 922 -101 1415 -6 219 -10 27715 -10 81383 l0 81052 16200 0
16200 0 3 -8447z"/>
</g>
</svg>
