<?xml version="1.0" standalone="no"?>
<!DOCTYPE svg PUBLIC "-//W3C//DTD SVG 20010904//EN"
 "http://www.w3.org/TR/2001/REC-SVG-20010904/DTD/svg10.dtd">
<svg version="1.0" xmlns="http://www.w3.org/2000/svg"
 width="32768.000000pt" height="32767.000000pt" viewBox="0 0 32768.000000 32767.000000"
 preserveAspectRatio="xMidYMid meet">

<g transform="translate(0.000000,32767.000000) scale(0.100000,-0.100000)"
fill="#000000" stroke="none">
<path d="M144710 325619 c-4333 -29 -8778 -267 -13195 -709 -9557 -956 -19093
-2890 -28265 -5731 -896 -278 -1494 -469 -2465 -789 -7986 -2630 -15728 -5960
-23157 -9961 -5531 -2979 -10880 -6331 -15978 -10013 -9189 -6636 -17575
-14348 -24951 -22946 -8976 -10463 -16394 -22151 -22046 -34740 -2875 -6403
-5294 -13057 -7202 -19815 -3227 -11433 -5019 -23172 -5351 -35055 -62 -2220
-69 -4944 -20 -7155 211 -9453 1342 -18798 3390 -28015 3130 -14086 8376
-27657 15533 -40180 1349 -2360 2776 -4699 4277 -7010 313 -482 869 -1324
1075 -1630 83 -124 232 -344 330 -490 1841 -2732 3963 -5642 6059 -8310 9048
-11515 19783 -21565 31866 -29831 6971 -4769 14254 -8874 21895 -12339 17355
-7871 36089 -12209 55120 -12765 4168 -121 8412 -64 12495 170 11864 680
23547 2828 34856 6409 12203 3863 23837 9361 34567 16335 3359 2183 6685 4551
9790 6970 280 218 516 402 526 409 19 13 -2906 2943 30671 -30723 9308 -9333
19518 -19571 22689 -22750 6682 -6701 7882 -7901 8083 -8088 1556 -1441 3250
-2544 5183 -3377 1753 -755 3601 -1215 5535 -1379 574 -49 748 -55 1540 -55
791 0 963 6 1540 54 3023 256 5900 1265 8445 2963 1017 679 1937 1444 2865
2383 737 746 1311 1426 1897 2246 1644 2298 2747 5060 3147 7878 135 949 182
1686 173 2717 -5 589 -9 694 -42 1153 -129 1771 -541 3567 -1200 5230 -765
1931 -1794 3639 -3099 5145 -486 562 228 -153 -18396 18416 -7769 7746 -20775
20714 -28902 28817 l-14776 14734 197 251 c2554 3261 5116 6864 7416 10427
3441 5330 6508 10859 9212 16605 2178 4627 4098 9353 5780 14229 198 575 728
2164 918 2756 4133 12847 6419 26203 6790 39670 67 2434 72 5089 15 7515 -296
12562 -2229 24997 -5760 37056 -760 2593 -1639 5304 -2545 7844 -2119 5941
-4601 11686 -7473 17290 -6232 12164 -14171 23377 -23586 33315 -917 967
-1535 1601 -2705 2771 -1168 1167 -1757 1742 -2751 2684 -9341 8853 -19848
16423 -31205 22482 -8976 4789 -18434 8613 -28225 11412 -11545 3299 -23469
5138 -35485 5471 -1668 46 -3210 61 -5095 49z m2415 -35939 c3764 -50 7339
-277 10980 -696 13532 -1557 26644 -5657 38640 -12082 10164 -5444 19392
-12490 27331 -20867 7930 -8369 14442 -17916 19351 -28370 3156 -6720 5632
-13825 7338 -21060 2175 -9222 3124 -18641 2830 -28085 -368 -11816 -2670
-23475 -6823 -34556 -1866 -4977 -4110 -9828 -6710 -14504 -5549 -9981 -12662
-19031 -21052 -26785 -6692 -6186 -14192 -11531 -22240 -15852 -1926 -1034
-4047 -2088 -6044 -3002 -8291 -3798 -17010 -6522 -25991 -8121 -10954 -1950
-22166 -2193 -33191 -720 -10151 1357 -20037 4145 -29408 8295 -6922 3065
-13535 6872 -19666 11324 -3741 2716 -7330 5692 -10685 8860 -1652 1561 -3421
3344 -4965 5006 -8553 9207 -15434 19843 -20325 31421 -2491 5895 -4452 11997
-5859 18229 -3031 13431 -3463 27321 -1270 40915 1591 9865 4541 19449 8772
28500 2568 5493 5578 10728 9055 15750 5239 7565 11453 14452 18457 20456
9330 7998 19992 14359 31450 18764 9779 3760 20050 6075 30500 6875 3148 241
6440 346 9525 305z"/>
</g>
</svg>
