<?xml version="1.0" standalone="no"?>
<!DOCTYPE svg PUBLIC "-//W3C//DTD SVG 20010904//EN"
 "http://www.w3.org/TR/2001/REC-SVG-20010904/DTD/svg10.dtd">
<svg version="1.0" xmlns="http://www.w3.org/2000/svg"
 width="26986.000000pt" height="32768.000000pt" viewBox="0 0 26986.000000 32768.000000"
 preserveAspectRatio="xMidYMid meet">

<g transform="translate(0.000000,32768.000000) scale(0.100000,-0.100000)"
fill="#000000" stroke="none">
<path d="M101990 325829 c-4742 -190 -9154 -2278 -12305 -5824 -1895 -2132
-3257 -4761 -3914 -7555 -405 -1722 -533 -3378 -416 -5360 165 -2781 806
-5538 1877 -8069 38 -90 68 -164 66 -166 -2 -1 -68 -7 -148 -14 -724 -60
-1623 -203 -2375 -376 -3813 -879 -7218 -3015 -9654 -6055 -1769 -2208 -2961
-4769 -3505 -7535 -688 -3497 -276 -7140 1177 -10400 1194 -2680 3035 -4998
5387 -6782 1541 -1168 3302 -2083 5159 -2679 1516 -486 3005 -816 4561 -1008
966 -120 1996 -186 2910 -186 484 0 709 17 1450 111 497 63 902 109 909 103 2
-2 -22 -112 -52 -246 -234 -1017 -364 -1942 -429 -3063 -17 -296 -17 -1456 0
-1745 40 -666 97 -1225 182 -1780 324 -2100 1038 -4130 2108 -5990 553 -962
1233 -1913 1976 -2765 464 -531 1030 -1102 1556 -1570 2352 -2091 5269 -3512
8385 -4084 1838 -338 3648 -376 5500 -115 1719 241 3344 716 4885 1427 2128
981 4030 2383 5605 4132 1311 1455 2658 3553 3598 5600 707 1540 1241 3103
1618 4734 27 118 51 216 53 218 1 2 63 -33 136 -78 3279 -1994 7131 -2839
10955 -2403 4714 537 9030 3023 11875 6839 3101 4158 4172 9459 2930 14492
-527 2135 -1447 4134 -2729 5928 -1256 1759 -2873 3464 -4581 4831 -854 684
-1825 1361 -2702 1885 -59 35 -107 66 -108 69 0 3 62 59 137 125 409 357 1025
958 1378 1345 1809 1982 3123 4318 3869 6880 322 1108 542 2313 636 3490 60
757 66 1743 15 2510 -309 4600 -2428 8881 -5900 11915 -1853 1620 -4059 2845
-6381 3544 -1443 434 -2871 672 -4409 732 -332 13 -1236 7 -1520 -10 -1831
-110 -3344 -416 -5052 -1022 -1324 -470 -2618 -1057 -3833 -1739 -1403 -788
-2699 -1694 -3938 -2753 -128 -110 -235 -197 -238 -195 -2 3 -44 97 -92 209
-275 633 -629 1330 -968 1906 -1336 2265 -3146 4177 -5340 5640 -2553 1704
-5500 2694 -8574 2883 -483 29 -1257 38 -1730 19z m1195 -11519 c735 -75 1393
-261 2030 -575 1157 -570 2089 -1509 2651 -2670 349 -722 537 -1467 574 -2280
14 -305 14 -14025 0 -14025 -20 0 -4720 2362 -4915 2471 -903 500 -1673 1050
-2450 1749 -195 175 -693 673 -866 865 -367 409 -676 794 -975 1215 -1140
1604 -1910 3514 -2214 5485 -158 1024 -193 2084 -94 2805 129 945 519 1888
1096 2658 843 1122 2038 1893 3399 2191 276 60 550 99 884 125 100 7 773 -3
880 -14z m29770 -4970 c448 -23 862 -89 1282 -205 1418 -394 2644 -1322 3402
-2579 447 -741 708 -1536 808 -2461 21 -203 25 -834 5 -1025 -76 -741 -239
-1351 -525 -1967 -636 -1368 -1818 -2449 -3262 -2982 -173 -64 -13308 -4332
-13313 -4326 -8 7 756 5074 803 5333 567 3104 2268 5908 4760 7841 520 403
1072 769 1650 1091 252 141 749 389 1010 504 419 186 970 395 1358 516 672
209 1337 294 2022 260z m-43965 -22020 c417 -26 841 -97 1225 -205 94 -26
8775 -2842 13198 -4282 76 -24 137 -49 135 -53 -4 -13 -3408 -3468 -3669
-3725 -1812 -1783 -4178 -3005 -6694 -3459 -755 -136 -1478 -199 -2280 -199
-833 0 -1539 64 -2360 214 -801 146 -1684 397 -2205 626 -1821 801 -3103 2467
-3404 4423 -43 276 -57 452 -63 765 -6 335 4 541 43 845 217 1723 1221 3289
2687 4190 1023 629 2218 932 3387 860z m42995 -5120 c2131 -97 4135 -686 5965
-1753 729 -426 1408 -920 2075 -1511 220 -196 790 -763 985 -981 254 -284 569
-670 775 -950 49 -66 95 -126 103 -134 8 -8 54 -75 104 -149 568 -848 890
-1768 979 -2792 16 -184 16 -713 0 -890 -97 -1068 -399 -1938 -971 -2795 -355
-531 -806 -1012 -1301 -1386 -551 -416 -1238 -758 -1915 -953 -527 -152 -999
-217 -1574 -217 -300 0 -460 10 -720 42 -1121 140 -2139 583 -3011 1310 -254
212 -605 575 -811 840 -58 75 -7916 10874 -8212 11287 -21 29 -37 54 -35 56 8
7 5099 846 5284 871 362 49 898 96 1240 108 210 8 844 6 1040 -3z m-17413
-10010 c1214 -2347 1314 -2543 1434 -2808 1228 -2707 1483 -5741 723 -8616
-405 -1533 -1103 -3000 -2037 -4281 -553 -758 -1229 -1343 -2027 -1756 -903
-466 -1913 -692 -2903 -649 -859 38 -1622 237 -2392 626 -557 281 -1000 604
-1466 1069 -442 442 -769 886 -1045 1420 -399 773 -619 1603 -648 2455 -42
1223 301 2432 976 3436 134 199 8228 11332 8234 11326 3 -4 522 -1004 1151
-2222z"/>
<path d="M59360 300364 c-1381 -95 -2643 -641 -3613 -1562 -414 -394 -727
-785 -1017 -1267 -157 -263 -454 -871 -760 -1560 -1474 -3314 -2376 -6862
-2659 -10465 -69 -877 -95 -1538 -95 -2485 0 -849 18 -1398 69 -2160 278
-4102 1362 -8159 3159 -11820 265 -540 444 -833 734 -1200 939 -1188 2316
-1960 3832 -2149 253 -32 402 -40 720 -40 331 -1 489 9 763 45 977 129 1935
522 2729 1121 505 380 989 898 1353 1448 781 1180 1103 2653 884 4045 -65 410
-180 842 -329 1230 -74 194 -143 349 -275 620 -622 1277 -1093 2562 -1435
3910 -531 2094 -719 4228 -565 6390 169 2362 771 4717 1763 6900 55 121 165
355 244 520 162 335 226 481 304 695 178 491 289 986 340 1515 20 215 15 798
-11 1030 -190 1765 -1070 3253 -2500 4227 -827 564 -1739 894 -2745 994 -156
15 -752 27 -890 18z"/>
<path d="M174410 285524 c-30 -2 -138 -13 -240 -24 -1511 -166 -2876 -899
-3845 -2065 -528 -635 -934 -1438 -1145 -2260 -200 -781 -233 -1609 -96 -2417
34 -196 65 -337 137 -608 376 -1427 509 -2823 404 -4245 -160 -2165 -852
-4235 -2028 -6060 -393 -611 -851 -1200 -1368 -1760 -209 -227 -651 -662 -874
-860 -99 -88 -384 -346 -635 -574 -250 -228 -525 -473 -610 -544 -191 -161
-507 -476 -660 -657 -553 -656 -976 -1471 -1190 -2291 -252 -970 -246 -2011
19 -2975 228 -830 604 -1548 1157 -2209 130 -155 426 -459 579 -595 624 -553
1359 -966 2145 -1205 390 -118 779 -194 1225 -237 195 -19 788 -16 995 6 488
49 883 133 1325 281 790 263 1489 679 2105 1252 52 48 367 327 700 619 890
781 1124 998 1671 1550 671 678 1168 1235 1745 1959 1295 1626 2388 3432 3230
5338 970 2194 1606 4505 1899 6890 347 2830 197 5680 -446 8467 -66 289 -239
967 -284 1116 -279 921 -769 1738 -1455 2424 -878 878 -1994 1442 -3225 1629
-292 45 -410 53 -800 56 -209 1 -405 1 -435 -1z"/>
<path d="M248325 275884 c-505 -39 -940 -120 -1380 -257 -77 -24 -5070 -1753
-11095 -3842 -6025 -2088 -11115 -3852 -11310 -3920 -1850 -640 -3358 -1271
-5010 -2097 -3397 -1697 -6540 -3868 -9320 -6437 -714 -660 -1568 -1513 -2210
-2207 -3342 -3611 -5977 -7764 -7817 -12319 -1722 -4262 -2704 -8814 -2893
-13415 -41 -1017 -41 -2309 0 -3315 70 -1692 254 -3446 530 -5065 22 -129 923
-5079 2001 -11000 1078 -5921 1961 -10772 1961 -10780 1 -8 -985 -1702 -2191
-3765 -2394 -4093 -2232 -3817 -2237 -3813 -1 2 -17 136 -34 298 -508 4831
-1870 9500 -4032 13824 -3686 7373 -9547 13436 -16788 17368 -755 410 -21450
11419 -21570 11474 -1198 554 -2551 680 -3844 358 -688 -172 -1396 -500 -1966
-912 -637 -460 -1177 -1047 -1580 -1717 -130 -217 -305 -569 -397 -800 -57
-142 -7604 -21761 -7994 -22898 -558 -1628 -1054 -3479 -1394 -5207 -645
-3277 -880 -6566 -710 -9920 245 -4795 1368 -9576 3290 -13995 65 -148 120
-276 122 -283 4 -10 -4464 -12 -22333 -10 l-22339 3 -4350 13925 c-2393 7659
-4391 14044 -4439 14190 -1406 4209 -3853 8014 -7106 11050 -3145 2935 -6976
5074 -11123 6211 -1886 517 -3784 820 -5757 919 -882 44 -1941 38 -2855 -15
-3148 -184 -6265 -932 -9150 -2195 -4271 -1870 -7979 -4831 -10751 -8585
-2400 -3250 -4037 -7030 -4769 -11010 -390 -2123 -522 -4304 -390 -6465 61
-991 180 -2000 351 -2975 32 -183 2837 -14981 2849 -15032 l5 -22 -4147 -4
c-2955 -3 -4220 -7 -4398 -15 -466 -22 -829 -43 -1100 -63 -6449 -474 -12559
-3093 -17365 -7443 -539 -488 -1198 -1141 -1729 -1715 -3746 -4043 -6268
-9088 -7255 -14511 -266 -1463 -415 -2894 -456 -4400 -16 -576 -8 -44792 8
-45295 6 -198 16 -513 22 -700 235 -7579 1494 -15111 3736 -22365 3596 -11630
9656 -22340 17779 -31420 1084 -1213 1964 -2140 3219 -3396 979 -979 1427
-1412 2276 -2200 9729 -9031 21478 -15660 34240 -19319 772 -221 2066 -573
2303 -625 l57 -13 0 -10081 c0 -6334 4 -10158 10 -10288 12 -257 32 -451 70
-685 349 -2144 1854 -3898 3920 -4571 413 -134 840 -221 1295 -264 208 -19
81792 -19 82000 0 1289 121 2443 620 3379 1462 560 505 992 1079 1327 1764
311 639 481 1240 566 2006 16 146 18 776 20 10401 l3 10247 108 26 c59 15 278
72 487 127 7132 1880 13994 4686 20387 8337 5866 3351 11269 7358 16188 12007
1001 946 2268 2211 3226 3220 4790 5047 8982 10725 12391 16785 4812 8552
8096 17868 9713 27550 656 3927 1023 7783 1130 11864 26 965 30 2708 30 13243
l0 11091 73 6 c39 3 164 8 277 11 113 3 345 13 515 21 4806 230 9525 1319
13950 3219 3756 1612 7241 3781 10340 6434 1296 1110 2536 2318 3701 3606 205
227 15956 18129 16077 18274 604 718 1050 1650 1236 2586 186 931 134 1932
-145 2833 -232 748 -592 1405 -1110 2027 -136 164 -490 519 -654 657 -164 137
-345 274 -511 385 -184 123 -20160 12887 -20484 13088 -4991 3106 -10656 5092
-16485 5780 -1090 128 -2096 206 -3345 257 -424 18 -2379 18 -2795 0 -1816
-76 -3255 -216 -4880 -473 -3449 -545 -6928 -1580 -10084 -2998 -99 -44 -181
-79 -183 -77 -4 3 4505 7726 4521 7744 6 6 4590 1603 10186 3547 11945 4150
10456 3632 10835 3770 3119 1134 6149 2684 8870 4538 6250 4259 11137 10117
14190 17012 2002 4520 3155 9374 3399 14310 37 740 41 930 41 2000 0 1069 -4
1269 -40 1995 -76 1520 -237 3032 -480 4510 -36 217 -173 987 -305 1710 -132
723 -1108 6087 -2170 11920 -1062 5833 -1949 10679 -1971 10770 -109 450 -257
856 -459 1260 -211 421 -432 758 -746 1135 -135 162 -521 550 -674 677 -845
700 -1820 1147 -2840 1302 -322 49 -445 58 -840 61 -206 1 -397 1 -425 -1z
m-4090 -13476 c3 -13 332 -1816 731 -4008 398 -2192 1089 -5987 1535 -8435
445 -2447 832 -4585 859 -4750 376 -2297 471 -4677 280 -6980 -351 -4229
-1609 -8278 -3713 -11960 -1559 -2727 -3604 -5228 -5986 -7319 -2280 -2001
-4869 -3634 -7656 -4828 -535 -230 -1119 -459 -1645 -646 -824 -294 -16295
-5651 -16300 -5645 -6 7 -3008 16495 -3096 17001 -18 106 -53 324 -78 485
-309 2010 -403 4039 -281 6087 102 1709 363 3435 775 5115 1610 6578 5485
12377 10945 16380 2176 1596 4573 2880 7115 3813 135 49 657 232 1160 406 503
174 4160 1439 8125 2810 3966 1372 7213 2495 7217 2495 4 1 10 -9 13 -21z
m-80869 -43378 c4174 -2223 7690 -4099 7814 -4168 1840 -1021 3581 -2256 5155
-3657 737 -655 1570 -1483 2231 -2215 2422 -2684 4322 -5813 5592 -9210 1418
-3794 2019 -7836 1766 -11885 -155 -2484 -649 -5013 -1437 -7350 -138 -407
-5690 -16321 -5697 -16329 -8 -8 -14890 7899 -15405 8184 -4215 2337 -7758
5674 -10345 9745 -1778 2796 -3075 5925 -3791 9139 -356 1600 -572 3173 -659
4791 -50 935 -52 2019 -5 2940 133 2588 603 5128 1397 7535 57 173 1377 3964
2933 8423 2361 6767 2831 8108 2845 8104 9 -2 3432 -1823 7606 -4047z
m-101226 -3070 c639 -19 1141 -62 1750 -150 2695 -388 5268 -1517 7370 -3234
1645 -1343 2954 -2960 3911 -4831 319 -623 575 -1224 824 -1930 36 -104 5025
-16070 11086 -35480 6061 -19409 11028 -35316 11039 -35348 l19 -57 -19711 2
-19711 3 -5933 31645 c-3263 17405 -5946 31728 -5963 31830 -268 1637 -267
3286 4 4925 246 1489 690 2859 1367 4215 633 1270 1424 2421 2408 3505 181
199 706 728 900 906 1204 1105 2538 1990 3994 2651 1826 828 3816 1290 5811
1348 380 11 483 11 835 0z m162310 -36290 c2471 -76 4827 -443 7165 -1115
2527 -727 5003 -1825 7205 -3198 439 -274 14610 -9321 14610 -9327 0 -8
-11067 -12599 -11399 -12970 -3502 -3907 -8088 -6818 -13123 -8329 -2094 -629
-4211 -1013 -6368 -1156 -687 -45 -1129 -59 -1905 -59 -776 0 -1218 14 -1905
59 -4731 313 -9343 1799 -13334 4294 -355 222 -14528 9271 -14544 9285 -10 9
873 1020 4209 4816 6738 7668 7157 8145 7330 8335 2769 3034 6178 5452 9970
7070 2437 1040 5021 1743 7630 2074 985 126 1892 195 2944 224 263 8 1233 6
1515 -3z m-184018 -10029 c6 -6 2168 -11533 2168 -11558 0 -10 -1261 -13
-6127 -16 -6728 -3 -6151 2 -6558 -58 -1416 -209 -2713 -945 -3623 -2055 -629
-768 -1060 -1718 -1226 -2705 -61 -357 -80 -635 -73 -1058 6 -414 29 -640 98
-1001 190 -983 625 -1886 1287 -2670 127 -151 465 -489 622 -623 994 -845
2196 -1321 3499 -1387 136 -7 2556 -10 7242 -10 l7039 0 5 -22 c2 -13 489
-2606 1080 -5763 591 -3157 1077 -5750 1080 -5762 l5 -23 -8327 0 c-5344 0
-8409 4 -8553 10 -2156 95 -4189 556 -6144 1394 -3233 1386 -5981 3736 -7853
6717 -1500 2388 -2397 5101 -2612 7904 -39 510 -46 691 -46 1325 0 635 7 832
46 1335 202 2622 992 5153 2317 7425 603 1035 1317 2008 2150 2930 227 252
921 945 1172 1172 1012 914 2077 1679 3230 2320 2475 1378 5219 2124 8055
2191 234 6 10040 -6 10047 -12z m108281 -457 c864 -872 1619 -1575 2497 -2325
2123 -1814 4511 -3457 6965 -4792 127 -68 3736 -1991 8020 -4272 4285 -2281
7793 -4150 7798 -4154 4 -4 -2444 -4216 -5440 -9359 l-5448 -9352 -26425 2
-26425 3 -1807 5780 c-994 3179 -1807 5781 -1808 5783 0 1 2476 2 5503 2 3506
0 5573 4 5697 10 2301 117 4273 1527 5115 3655 681 1723 493 3665 -507 5244
-575 908 -1444 1666 -2433 2125 -590 273 -1143 425 -1865 513 -137 17 -559 18
-7635 23 l-7490 5 -17 50 c-29 82 -3598 11506 -3598 11516 0 5 9332 9 24420 9
l24420 0 463 -466z m42627 -26059 c4007 -2557 7375 -4706 7485 -4775 397 -252
607 -369 1390 -770 677 -347 869 -450 858 -461 -36 -35 -812 -433 -1143 -586
-2094 -967 -4298 -1499 -6590 -1593 -186 -8 -2726 -10 -8558 -8 l-8293 3 3762
6433 c3647 6237 3762 6432 3783 6419 12 -8 3299 -2106 7306 -4662z m-177180
-14381 c3335 -2392 7076 -4021 11080 -4824 1648 -331 3248 -508 4970 -550 550
-13 162582 -14 163120 0 1196 30 2262 118 3401 280 4786 683 9307 2556 13181
5462 131 98 242 178 248 178 13 0 13 -19035 0 -20200 -12 -1055 -28 -1653 -70
-2590 -347 -7693 -1913 -15321 -4625 -22525 -4078 -10832 -10700 -20584
-19260 -28366 -5815 -5285 -12385 -9571 -19565 -12761 -6122 -2720 -12653
-4599 -19300 -5552 -3089 -443 -6096 -682 -9255 -736 -927 -16 -52955 -8
-53425 8 -184 6 -479 16 -655 22 -11526 386 -22810 3502 -32900 9088 -6460
3576 -12351 8123 -17441 13462 -5762 6044 -10446 13037 -13839 20660 -3531
7934 -5612 16398 -6160 25060 -23 361 -55 948 -55 1002 l0 46 123 -68 c978
-540 2107 -1108 3132 -1575 5166 -2355 10770 -3716 16425 -3990 1157 -56 1300
-57 8580 -53 5120 3 6651 7 6740 16 492 52 862 125 1256 248 1783 553 3176
1929 3762 3714 308 939 370 1937 181 2910 -189 972 -621 1871 -1269 2640 -142
168 -484 512 -650 652 -645 544 -1384 938 -2190 1167 -283 80 -618 146 -894
176 -78 8 -154 18 -171 22 -16 3 -3142 9 -6945 13 -4924 5 -6996 10 -7195 18
-154 7 -381 16 -505 22 -5178 239 -10200 1665 -14735 4183 -2002 1111 -3894
2434 -5647 3950 l-198 171 0 4588 0 4588 278 -208 c152 -114 365 -271 472
-348z m63395 -103239 c2603 -284 4854 -434 7665 -507 713 -19 52496 -19 53210
0 2453 64 4419 185 6645 408 421 42 1297 137 1393 150 l42 6 0 -6076 0 -6076
-34725 0 -34725 0 0 6068 c0 3338 3 6072 7 6076 4 4 23 5 43 2 19 -3 220 -26
445 -51z"/>
<path d="M140300 158069 c-1243 -100 -2364 -562 -3319 -1366 -153 -129 -520
-496 -653 -653 -319 -379 -571 -763 -788 -1205 -306 -622 -486 -1249 -565
-1965 -23 -199 -31 -729 -16 -957 91 -1349 628 -2591 1551 -3582 708 -761
1654 -1333 2670 -1615 363 -100 667 -154 1115 -198 165 -16 6034 -24 6415 -9
843 34 1597 220 2335 575 1577 759 2738 2226 3119 3941 139 627 173 1285 101
1930 -122 1075 -558 2114 -1249 2970 -905 1121 -2221 1876 -3636 2084 -401 60
-118 55 -3700 57 -1801 1 -3322 -2 -3380 -7z"/>
<path d="M71000 111783 c-124 -6 -406 -34 -540 -54 -1484 -215 -2817 -992
-3740 -2179 -1024 -1318 -1426 -3004 -1109 -4650 382 -1977 1766 -3611 3658
-4316 543 -203 1093 -318 1686 -354 126 -8 1134 -10 3350 -7 3412 4 3199 1
3573 52 584 81 1205 271 1744 534 1437 701 2517 1969 2987 3506 114 370 194
784 233 1200 20 210 16 826 -5 1030 -50 468 -130 848 -262 1254 -228 698 -585
1341 -1071 1926 -132 160 -548 577 -704 706 -846 703 -1832 1145 -2895 1298
-405 59 -158 55 -3645 56 -1757 1 -3224 0 -3260 -2z"/>
</g>
</svg>
