<?xml version="1.0" standalone="no"?>
<!DOCTYPE svg PUBLIC "-//W3C//DTD SVG 20010904//EN"
 "http://www.w3.org/TR/2001/REC-SVG-20010904/DTD/svg10.dtd">
<svg version="1.0" xmlns="http://www.w3.org/2000/svg"
 width="31495.000000pt" height="32768.000000pt" viewBox="0 0 31495.000000 32768.000000"
 preserveAspectRatio="xMidYMid meet">

<g transform="translate(0.000000,32768.000000) scale(0.100000,-0.100000)"
fill="#000000" stroke="none">
<path d="M157000 325610 c-1288 -97 -2441 -509 -3463 -1238 -555 -396 -1083
-910 -1491 -1452 -73 -97 -155 -209 -183 -250 -27 -41 -5746 -10040 -12708
-22220 -6962 -12180 -12661 -22149 -12665 -22153 -4 -4 -3629 3069 -8056 6829
-4427 3761 -8089 6871 -8139 6913 -325 271 -766 559 -1165 761 -802 405 -1614
624 -2520 681 -205 13 -700 7 -895 -11 -1300 -117 -2487 -581 -3496 -1366
-363 -283 -757 -676 -1071 -1069 -350 -438 -678 -989 -897 -1505 -33 -80
-3384 -8171 -7446 -17980 l-7385 -17835 -32 3 c-18 1 -10468 1649 -23223 3662
-12755 2012 -23244 3666 -23310 3674 -800 100 -1643 50 -2416 -144 -821 -206
-1616 -588 -2299 -1106 -779 -591 -1412 -1338 -1860 -2197 -593 -1139 -828
-2460 -669 -3767 21 -176 10515 -66928 10625 -67585 955 -5725 2463 -11516
4432 -17025 2041 -5708 4600 -11221 7629 -16433 102 -175 184 -320 182 -322
-2 -2 -137 -50 -299 -108 -8551 -3039 -16698 -7524 -23880 -13146 -1253 -981
-1954 -1563 -4115 -3416 -13655 -11712 -21938 -18823 -22055 -18932 -1002
-937 -1684 -2149 -1945 -3458 -85 -427 -114 -708 -122 -1165 -8 -459 17 -806
87 -1206 209 -1209 750 -2323 1576 -3244 300 -335 -30 -50 12184 -10531 12408
-10647 11967 -10269 12510 -10720 7241 -6017 15439 -10803 24240 -14151 7396
-2814 15152 -4588 23025 -5267 1877 -162 3581 -253 5665 -302 692 -16 4393
-23 5446 -10 2397 29 4369 125 6619 321 6061 529 12194 1742 17910 3541 481
151 524 164 529 158 2 -2 33 -166 71 -364 548 -2929 1258 -5990 2067 -8915
2233 -8081 5388 -15879 9398 -23235 6189 -11351 14329 -21504 24065 -30015
1787 -1563 3635 -3074 5560 -4546 662 -507 822 -621 1135 -806 392 -233 795
-416 1250 -568 544 -182 1060 -283 1640 -321 233 -15 795 -6 1010 16 960 98
1808 367 2616 831 322 184 508 315 1269 898 2987 2284 5816 4688 8575 7285
1493 1406 3176 3089 4600 4601 8416 8935 15269 19226 20275 30445 2720 6096
4887 12463 6450 18949 418 1736 817 3592 1135 5276 39 206 75 398 81 426 l10
51 232 -74 c128 -41 428 -134 667 -208 7077 -2180 14441 -3426 21840 -3695
1349 -49 1838 -55 4580 -55 2740 0 3277 7 4600 55 13001 478 25669 3894 37135
10013 5333 2845 10442 6316 15010 10197 507 431 23507 20149 23595 20229 504
455 912 953 1262 1541 120 201 334 628 423 845 69 167 175 468 225 639 335
1154 341 2406 15 3556 -326 1151 -979 2216 -1849 3020 -148 137 -22995 19704
-23756 20346 -3546 2991 -7459 5770 -11460 8141 -3811 2259 -7668 4163 -11805
5829 -209 84 -379 157 -378 162 1 5 88 152 194 328 1880 3129 3622 6443 5156
9809 3547 7782 6070 16031 7482 24460 85 509 10660 67456 10701 67745 148
1048 9 2232 -378 3215 -422 1075 -1116 2018 -2017 2740 -523 420 -1094 746
-1719 982 -952 360 -1956 486 -2961 373 -93 -10 -1626 -249 -3405 -530 -15114
-2385 -46755 -7378 -46756 -7376 0 0 -3276 7928 -7279 17616 -4003 9688 -7392
17892 -7532 18230 -253 612 -393 918 -539 1178 -918 1631 -2536 2806 -4369
3171 -412 82 -704 111 -1162 118 -472 7 -732 -11 -1138 -77 -1125 -185 -2132
-626 -2988 -1307 -64 -51 -3747 -3178 -8183 -6949 -4437 -3770 -8068 -6854
-8069 -6852 -2 2 -5714 9986 -12694 22187 -10544 18430 -12709 22209 -12798
22333 -360 505 -822 992 -1308 1380 -418 333 -862 609 -1325 823 -712 330
-1454 531 -2250 611 -190 19 -872 28 -1060 14z m3383 -24435 c19128 -33449
27775 -48572 27974 -48925 985 -1742 2018 -3658 2996 -5555 403 -783 887
-1749 880 -1755 -4 -4 -93 -40 -198 -80 -545 -208 -1626 -644 -2372 -956
-4204 -1757 -8304 -3812 -12237 -6137 -1821 -1075 -3737 -2290 -5076 -3219
-4047 -2805 -7760 -5806 -11320 -9148 -526 -494 -780 -738 -1416 -1357 l-351
-342 -355 347 c-938 918 -1741 1677 -2643 2498 -8025 7296 -17261 13172
-27280 17354 -1793 748 -3763 1500 -5480 2091 -126 44 -236 81 -243 84 -15 5
19 75 311 635 736 1416 1397 2646 2840 5280 269 492 498 912 507 933 32 71
30515 53387 30522 53384 5 -1 1328 -2310 2941 -5132z m-46013 -29605 c3044
-2586 5545 -4712 5558 -4724 l23 -22 -2132 -3735 c-2010 -3522 -2449 -4298
-2991 -5284 -1339 -2437 -2747 -5122 -3973 -7575 -163 -327 -299 -597 -301
-599 -2 -3 -257 46 -567 107 -1259 250 -2423 456 -3547 628 -528 80 -7853
1234 -7856 1237 -1 2 4603 11130 9522 23015 626 1512 699 1681 713 1669 9 -8
2507 -2130 5551 -4717z m96930 -7908 c4380 -10612 5205 -12618 5191 -12624 -9
-4 -844 -142 -1856 -308 -3142 -514 -3219 -527 -4105 -700 -1380 -269 -3276
-699 -5540 -1255 -118 -29 -218 -50 -221 -47 -4 4 -132 264 -285 577 -1295
2651 -2731 5436 -4007 7775 -709 1299 -866 1576 -3349 5913 -1193 2084 -2168
3792 -2166 3797 5 14 11121 9500 11126 9495 3 -3 2349 -5683 5212 -12623z
m-137540 -21232 c15342 -2421 28566 -4506 29385 -4636 820 -129 1639 -260
1820 -290 6208 -1035 12113 -2687 17825 -4989 8428 -3395 16262 -8151 23145
-14050 1542 -1321 2827 -2504 4404 -4052 l283 -278 -257 -325 c-7710 -9735
-13546 -20858 -17174 -32735 -2137 -6996 -3486 -14144 -4050 -21460 -31 -397
-288 -4246 -316 -4720 -57 -995 -70 -1501 -70 -2810 0 -1189 4 -1406 40 -2220
259 -5761 1524 -11420 3744 -16747 647 -1554 1417 -3156 2226 -4638 2150
-3936 4779 -7499 7921 -10735 547 -562 767 -773 1259 -1200 357 -310 566 -497
562 -502 -10 -10 -734 -85 -1227 -127 -1118 -96 -2068 -136 -3265 -136 -1223
0 -1325 5 -3725 175 -1042 74 -2001 141 -2130 150 -4291 288 -8762 968 -13059
1984 -2665 631 -4543 1134 -6591 1767 -7035 2175 -13830 5272 -19970 9102
-6789 4236 -12944 9398 -18296 15342 -2260 2511 -4357 5140 -6329 7935 -120
171 -491 693 -823 1160 -628 883 -751 1062 -1169 1705 -6248 9622 -10516
20373 -12562 31647 -91 497 -215 1225 -291 1698 -240 1490 -9246 58382 -9244
58387 2 3 12 4 22 2 9 -2 12570 -1984 27912 -4404z m198946 4378 c-3 -18 -922
-5829 -2041 -12913 -4949 -31313 -7207 -45599 -7249 -45855 -815 -4999 -2130
-10086 -3854 -14915 -2601 -7284 -6197 -14226 -10611 -20485 -4190 -5941
-9159 -11382 -14691 -16086 -6036 -5132 -12690 -9386 -19845 -12686 -9503
-4383 -19648 -7001 -30080 -7763 -308 -22 -4398 -292 -4615 -304 -1590 -89
-3343 -61 -4975 80 -4442 383 -8810 1604 -12780 3571 -116 57 -253 121 -305
142 -131 52 -622 308 -1160 604 -3476 1913 -6684 4435 -9340 7342 -5210 5701
-8468 12878 -9320 20528 -222 1998 -278 4068 -164 6042 22 386 291 4427 319
4805 575 7605 2134 15035 4660 22205 1616 4588 3617 9027 5996 13303 3490
6271 7793 12129 12753 17362 1048 1105 2270 2325 3361 3356 7212 6812 15544
12331 24625 16309 6520 2856 13374 4896 20395 6069 231 39 2301 368 4600 731
2299 364 15459 2445 29245 4625 13786 2179 25069 3963 25074 3964 4 1 6 -14 2
-31z m-210510 -105735 c2044 -2653 4183 -5154 6478 -7578 543 -572 1015 -1055
1800 -1841 1009 -1009 1510 -1494 2366 -2294 5878 -5494 12420 -10237 19470
-14117 1653 -910 3526 -1868 5220 -2671 5435 -2575 11047 -4623 16865 -6157
595 -157 1489 -382 2025 -510 223 -53 673 -162 1000 -242 2367 -576 4354 -990
6615 -1377 2987 -512 6207 -899 9220 -1106 165 -11 1151 -81 2190 -155 1980
-141 2261 -157 3060 -176 270 -6 492 -13 495 -16 6 -6 -2656 -2662 -2970
-2964 -393 -376 -620 -590 -930 -879 -5731 -5325 -12291 -9673 -19409 -12862
-3984 -1785 -7983 -3175 -12111 -4207 -4935 -1235 -9919 -1937 -15010 -2116
-1078 -37 -1343 -40 -4015 -40 -2668 0 -2944 3 -4025 40 -7199 250 -14319
1570 -21125 3915 -3821 1318 -7497 2939 -11060 4878 -4399 2394 -8578 5272
-12407 8543 -1880 1607 -17486 14996 -17485 15001 3 14 17552 15034 18012
15417 3760 3136 7765 5841 12085 8164 1070 574 2409 1247 3535 1775 1999 936
4117 1810 6205 2560 1077 387 2304 794 3320 1102 273 83 396 121 417 129 1 1
77 -97 169 -216z m193861 -824 c4732 -1661 9357 -3850 13665 -6465 3136 -1905
6155 -4065 8943 -6399 358 -299 17769 -15223 17773 -15234 2 -6 -4253 -3657
-15442 -13250 -2289 -1962 -2858 -2444 -3526 -2985 -4647 -3761 -9749 -6937
-15170 -9443 -8538 -3948 -17748 -6196 -27150 -6628 -1404 -64 -2092 -75
-4790 -75 -2979 0 -3844 18 -5575 115 -10584 595 -21002 3553 -30365 8623
-5359 2901 -10386 6527 -14845 10707 -729 683 -1342 1285 -2588 2539 l-1152
1161 95 3 c52 2 190 -2 305 -8 192 -10 340 -20 935 -65 505 -37 848 -42 1715
-25 1245 25 1568 42 4185 220 2758 189 3316 233 4695 371 12975 1298 25558
5118 37045 11247 9001 4802 17215 10961 24359 18262 2222 2272 4261 4563 6285
7063 163 202 301 367 306 367 6 0 139 -45 297 -101z m-86457 -49400 c1313
-1261 2424 -2272 3680 -3350 5292 -4540 11065 -8375 17298 -11493 116 -58 212
-108 212 -111 0 -14 -110 -694 -176 -1090 -2371 -14184 -7881 -27651 -16132
-39435 -4749 -6781 -10365 -12935 -16692 -18288 -189 -161 -348 -292 -352
-292 -20 0 -1171 987 -1843 1580 -2937 2592 -5665 5310 -8281 8250 -5592 6284
-10391 13374 -14174 20940 -4398 8795 -7420 18190 -8975 27903 -36 225 -65
410 -65 412 0 3 237 124 528 269 3572 1795 7122 3919 10452 6255 3441 2413
6663 5052 9729 7966 852 810 353 312 7565 7543 l5070 5083 5945 -5944 c3270
-3269 6065 -6058 6211 -6198z"/>
<path d="M23220 79754 c-276 -19 -629 -66 -874 -115 -1553 -312 -2931 -1174
-3883 -2429 -1382 -1823 -1704 -4220 -853 -6346 86 -214 296 -645 410 -839
217 -371 473 -724 757 -1045 157 -177 468 -480 673 -656 345 -295 8299 -7093
8495 -7260 1965 -1671 4213 -3395 6415 -4921 601 -416 1658 -1125 1930 -1295
870 -542 1825 -861 2875 -960 189 -18 902 -18 1090 0 880 83 1634 298 2395
683 1528 772 2671 2100 3215 3734 224 670 328 1311 328 2025 1 415 -20 680
-83 1068 -267 1638 -1162 3113 -2501 4122 -199 150 -330 238 -347 233 -15 -6
-214 124 -752 487 -2054 1388 -3930 2798 -5835 4385 -225 188 -2340 1996
-4698 4019 -2439 2090 -4357 3728 -4448 3796 -799 601 -1673 997 -2634 1194
-443 90 -713 117 -1220 121 -220 1 -425 1 -455 -1z"/>
<path d="M290910 79724 c-279 -17 -689 -74 -966 -134 -1004 -220 -2001 -703
-2758 -1338 -77 -65 -92 -73 -108 -63 -16 10 -508 -408 -4221 -3592 -4114
-3526 -4543 -3893 -5169 -4405 -1860 -1520 -3879 -3008 -5898 -4345 -541 -358
-857 -612 -1215 -979 -503 -513 -887 -1059 -1206 -1713 -817 -1675 -863 -3622
-129 -5360 82 -194 283 -592 390 -770 564 -944 1353 -1728 2294 -2279 1599
-936 3542 -1142 5301 -561 597 197 1043 418 1665 824 2814 1841 5693 3989
8250 6155 562 477 8400 7192 8518 7299 413 373 817 856 1115 1333 318 508 587
1099 741 1624 149 512 224 959 256 1530 72 1303 -282 2644 -995 3770 -415 658
-964 1250 -1590 1718 -713 533 -1497 900 -2376 1111 -292 71 -608 122 -964
157 -153 14 -784 27 -935 18z"/>
<path d="M59996 57189 c-735 -34 -1485 -201 -2176 -486 -198 -81 -594 -277
-775 -383 -1661 -972 -2806 -2629 -3125 -4525 -68 -401 -95 -780 -87 -1200 10
-524 71 -973 198 -1479 430 -1699 1539 -3152 3069 -4021 511 -290 907 -449
1710 -685 5137 -1512 10252 -2519 15540 -3060 2438 -249 4812 -388 7390 -431
835 -14 5583 -7 6145 10 1298 37 1928 62 2895 116 3043 171 6170 519 9202
1025 578 97 869 167 1291 310 779 263 1532 699 2167 1254 1123 981 1898 2399
2124 3886 141 927 81 1877 -173 2756 -403 1393 -1214 2563 -2374 3425 -701
522 -1600 931 -2465 1123 -464 103 -898 150 -1392 149 -466 0 -662 -19 -1380
-137 -3261 -536 -6427 -845 -9700 -946 -811 -25 -1427 -30 -3660 -30 -2614 0
-3133 7 -4345 55 -5986 240 -11974 1238 -17735 2955 -715 213 -1151 292 -1775
320 -243 11 -307 11 -569 -1z"/>
<path d="M254130 57190 c-284 -22 -558 -59 -840 -116 -223 -44 -404 -91 -760
-197 -5486 -1636 -11214 -2624 -16915 -2917 -1559 -80 -2606 -100 -5210 -100
-2106 0 -3051 13 -4190 55 -3065 114 -6088 423 -9170 936 -680 113 -928 135
-1450 126 -345 -6 -522 -20 -815 -63 -1665 -244 -3218 -1158 -4213 -2479 -772
-1024 -1227 -2231 -1317 -3487 -13 -187 -13 -680 0 -863 104 -1442 661 -2778
1604 -3854 828 -942 1926 -1630 3141 -1966 300 -83 497 -122 1135 -225 3696
-599 7287 -951 10970 -1075 1159 -39 1318 -40 4340 -40 3023 0 3180 1 4335 40
6877 232 13740 1306 20380 3190 580 164 1231 357 1445 427 808 265 1550 687
2220 1262 136 116 530 511 646 646 887 1034 1409 2253 1550 3620 22 213 30
786 15 1021 -93 1416 -634 2742 -1557 3819 -123 144 -444 470 -589 600 -704
629 -1543 1103 -2423 1371 -412 125 -788 201 -1242 251 -147 16 -267 21 -580
23 -217 2 -447 -1 -510 -5z"/>
</g>
</svg>
