<?xml version="1.0" standalone="no"?>
<!DOCTYPE svg PUBLIC "-//W3C//DTD SVG 20010904//EN"
 "http://www.w3.org/TR/2001/REC-SVG-20010904/DTD/svg10.dtd">
<svg version="1.0" xmlns="http://www.w3.org/2000/svg"
 width="24024.000000pt" height="32768.000000pt" viewBox="0 0 24024.000000 32768.000000"
 preserveAspectRatio="xMidYMid meet">

<g transform="translate(0.000000,32768.000000) scale(0.100000,-0.100000)"
fill="#000000" stroke="none">
<path d="M118965 325899 c-5680 -112 -11323 -1034 -16730 -2734 -5833 -1834
-11335 -4548 -16345 -8063 -4928 -3458 -9337 -7677 -13001 -12442 -2100 -2730
-3930 -5588 -5549 -8665 -340 -645 -5141 -10187 -5230 -10393 -197 -457 -344
-991 -404 -1472 -29 -232 -36 -334 -43 -591 l-6 -256 -31 -18 c-92 -53 -916
-563 -1271 -785 -6288 -3942 -12141 -8492 -17520 -13620 -1092 -1041 -2511
-2458 -3566 -3560 -5215 -5450 -9846 -11408 -13849 -17820 -3522 -5640 -6543
-11627 -8992 -17820 -4603 -11639 -7191 -23974 -7653 -36470 -35 -952 -51
-1623 -65 -2675 -17 -1250 -9 -35531 8 -35680 68 -589 175 -1031 369 -1520 66
-166 214 -476 302 -629 l62 -110 -49 -50 c-26 -28 -111 -116 -187 -196 -2234
-2322 -4068 -5113 -5332 -8110 -2501 -5930 -2791 -12528 -822 -18662 650
-2026 1592 -4059 2737 -5908 1434 -2316 3246 -4429 5332 -6221 113 -96 4620
-3851 10015 -8344 5396 -4492 9815 -8173 9821 -8179 9 -8 13 -576 18 -2176 6
-2370 14 -2905 61 -4160 412 -10873 2980 -21589 7543 -31470 629 -1362 1401
-2917 2099 -4225 787 -1474 1638 -2959 2508 -4375 203 -331 4881 -7807 5178
-8275 3974 -6270 8819 -12021 14342 -17020 7510 -6799 16206 -12166 25645
-15828 7417 -2878 15216 -4673 23140 -5326 1400 -116 2796 -195 4225 -241 900
-28 1356 -34 2590 -34 1438 0 2058 11 3280 59 12800 507 25325 3980 36545
10133 10087 5532 18895 13084 25900 22207 278 362 8665 11541 9023 12028 6410
8695 11062 18561 13692 29037 1466 5840 2286 11764 2465 17800 16 543 30 1250
30 1552 l0 277 9848 8207 c5416 4515 9926 8276 10022 8358 2879 2475 5198
5526 6815 8972 2145 4568 2952 9652 2329 14674 -465 3755 -1723 7391 -3662
10587 -390 642 -818 1288 -1255 1888 -713 981 -1585 2019 -2374 2826 -84 86
-153 159 -153 162 0 3 19 38 42 79 68 119 211 422 276 583 233 579 359 1160
393 1808 15 297 7 34874 -9 35507 -21 872 -33 1285 -47 1730 -555 16588 -4824
32872 -12478 47590 -4877 9379 -11025 17975 -18308 25595 -1096 1147 -2407
2459 -3539 3540 -4133 3950 -8465 7501 -13125 10762 -1399 978 -2585 1768
-4290 2855 l-100 64 -2964 5890 c-3256 6469 -3566 7083 -3791 7509 -1480 2806
-3147 5445 -5025 7955 -1470 1964 -2973 3736 -4719 5565 -297 311 -1441 1455
-1751 1751 -2911 2779 -5929 5149 -9240 7257 -8321 5298 -17800 8442 -27640
9167 -1792 132 -3752 184 -5540 149z m2185 -11149 c759 -16 1364 -41 2080 -85
5092 -318 10112 -1449 14855 -3345 3314 -1325 6480 -3019 9415 -5040 5986
-4121 10940 -9514 14540 -15830 250 -439 454 -810 448 -815 -2 -2 -92 31 -199
74 -603 244 -1189 459 -2749 1011 -675 238 -1232 439 -1246 448 -7 4 -33 22
-59 40 -36 27 -116 55 -363 132 -174 54 -407 131 -517 170 -2370 848 -4948
1669 -7390 2354 -552 155 -884 241 -2140 557 -3494 880 -5119 1250 -7236 1648
-1034 195 -1560 278 -3974 626 -704 101 -1633 236 -2065 299 -2335 342 -3175
448 -4570 575 -3853 354 -7472 513 -10747 473 -1415 -18 -2412 -44 -3633 -97
-11383 -495 -22587 -2724 -33300 -6625 -1380 -502 -2913 -1097 -4243 -1645
-197 -81 -360 -146 -362 -144 -7 8 446 818 723 1294 3364 5776 7870 10776
13252 14701 3073 2241 6389 4103 9908 5563 5423 2250 11245 3492 17112 3651
739 20 1775 24 2460 10z m-60 -27840 c2292 -31 4462 -141 7050 -355 2032 -169
3026 -289 5575 -675 363 -55 1099 -163 1635 -240 1285 -183 1852 -272 2360
-369 2190 -416 3979 -803 5940 -1286 705 -174 1938 -487 2249 -571 7393 -1997
14268 -4686 20896 -8172 9613 -5056 18379 -11675 25885 -19547 5411 -5675
10137 -11961 14083 -18737 1630 -2797 3132 -5692 4490 -8648 2283 -4973 4168
-10163 5611 -15454 2042 -7482 3213 -15199 3481 -22946 15 -449 29 -924 47
-1690 16 -656 23 -27570 8 -27570 -12 0 -107435 31597 -108035 31776 -5887
1765 -11662 4111 -17125 6956 -11101 5782 -20987 13624 -29161 23133 -4540
5281 -8527 11071 -11861 17225 -1223 2258 -2404 4660 -3433 6985 -1254 2833
-2416 5825 -3330 8574 l-97 293 49 52 c27 28 171 179 319 336 1583 1674 3415
3468 5189 5081 6272 5703 13233 10571 20745 14506 1376 722 3002 1522 4410
2173 9566 4419 19679 7271 30125 8494 3691 433 7542 663 11127 667 480 0 800
4 803 10 8 11 84 11 965 -1z m-81762 -41680 c844 -2082 1840 -4319 2873 -6455
407 -843 1130 -2275 1581 -3135 5598 -10661 12881 -20281 21633 -28576 4191
-3971 8864 -7737 13588 -10948 119 -82 219 -152 222 -156 5 -8 7 -6 -645 -601
-5833 -5325 -11898 -10419 -18135 -15230 -253 -195 -534 -412 -625 -482 -91
-69 -196 -154 -235 -187 -138 -118 -1295 -998 -2445 -1859 -9007 -6747 -18441
-12973 -28138 -18570 l-452 -261 -378 -10 c-2777 -75 -5414 -545 -8009 -1429
l-323 -109 0 15126 c0 14622 2 15651 30 16757 405 15924 4571 31438 12187
45378 1907 3492 4026 6871 6345 10120 452 633 750 1039 758 1030 4 -4 80 -186
168 -403z m50196 -55399 c1290 -685 2877 -1482 4241 -2131 4760 -2264 9683
-4184 14700 -5734 556 -171 1181 -358 2264 -677 l793 -234 -7223 -2 c-3973 -2
-11227 1 -16119 5 l-8894 7 234 200 c2978 2540 6857 6009 9585 8573 77 72 144
131 149 132 4 0 126 -62 270 -139z m79010 -25537 c10522 -3094 21482 -6317
24356 -7163 l5225 -1536 0 -30710 c0 -24763 -2 -30797 -13 -31160 -7 -247 -19
-632 -27 -855 -428 -11853 -3777 -23405 -9753 -33645 -1282 -2198 -2741 -4415
-4229 -6427 -303 -410 -8629 -11520 -8872 -11838 -1502 -1969 -3101 -3854
-4805 -5665 -942 -1001 -2149 -2205 -3136 -3131 -5463 -5120 -11618 -9307
-18390 -12511 -2618 -1239 -5327 -2323 -8100 -3241 -9196 -3046 -18948 -4190
-28610 -3356 -10030 865 -19733 3824 -28550 8707 -5528 3061 -10668 6878
-15195 11283 -404 394 -1385 1379 -1710 1719 -3367 3515 -6246 7186 -8847
11280 -228 360 -5018 8018 -5211 8332 -1537 2503 -2928 5118 -4144 7793 -3821
8402 -5973 17457 -6338 26670 -21 533 -34 997 -45 1595 -6 329 -10 11974 -10
31652 l0 31132 -29 174 c-24 143 -79 398 -106 492 -4 16 4 26 37 46 7640 4712
14414 9284 21168 14288 367 272 2050 1534 2185 1639 l80 62 41969 0 41969 0
19131 -5626z m43721 -16673 c968 -53 1780 -159 2644 -347 3814 -828 7183
-3048 9456 -6229 1308 -1830 2232 -3981 2666 -6200 135 -695 218 -1355 271
-2165 18 -264 18 -1475 0 -1740 -99 -1528 -354 -2846 -812 -4195 -703 -2071
-1808 -3934 -3319 -5595 -168 -184 -821 -834 -1006 -1000 -277 -248 -295 -263
-6657 -5566 l-6233 -5195 -3 19113 c-1 10512 0 19119 3 19127 4 11 227 12
1398 8 795 -3 1478 -10 1592 -16z m-181275 -19111 c0 -10516 -2 -19120 -5
-19120 -9 0 -12550 10457 -12700 10590 -387 343 -894 842 -1218 1198 -2058
2266 -3395 5019 -3907 8047 -197 1163 -261 2410 -185 3595 179 2781 1085 5460
2628 7775 1951 2925 4814 5108 8167 6226 1427 475 2908 744 4405 798 121 4
804 9 1518 9 l1297 2 0 -19120z"/>
<path d="M158445 158770 c-2535 -59 -4979 -387 -7400 -991 -5362 -1339 -10308
-3985 -14390 -7699 -834 -759 -1745 -1680 -2494 -2520 -1395 -1566 -2607
-3209 -3688 -5003 -3711 -6159 -5330 -13352 -4617 -20512 670 -6729 3355
-13081 7714 -18246 628 -744 1146 -1305 1905 -2065 549 -550 719 -713 1153
-1108 2940 -2675 6346 -4813 10022 -6291 3391 -1363 7014 -2165 10670 -2359
663 -36 890 -41 1785 -41 895 0 1122 5 1785 41 3907 208 7786 1110 11370 2644
986 422 1935 883 2880 1398 3432 1871 6531 4356 9123 7315 2796 3192 4964
6900 6377 10907 1071 3039 1699 6231 1860 9465 50 1007 52 2176 5 3185 -95
2023 -370 4025 -821 5975 -1755 7579 -6063 14277 -12224 19006 -2945 2261
-6242 4010 -9780 5190 -2928 975 -5904 1531 -8990 1679 -660 31 -1634 44
-2245 30z m1585 -11150 c1360 -62 2596 -223 3880 -506 3442 -759 6655 -2323
9377 -4566 2030 -1673 3744 -3684 5071 -5950 1686 -2879 2698 -6104 2972
-9468 55 -677 74 -1270 67 -2010 -6 -533 -12 -731 -37 -1135 -204 -3286 -1126
-6476 -2703 -9350 -1250 -2278 -2903 -4335 -4862 -6050 -3744 -3279 -8458
-5202 -13440 -5485 -553 -31 -1525 -41 -2050 -20 -3207 127 -6246 901 -9110
2321 -4337 2149 -7851 5657 -10019 9999 -1000 2003 -1691 4137 -2050 6330
-146 894 -229 1693 -278 2680 -17 339 -17 1542 0 1885 79 1604 286 3021 659
4500 767 3049 2182 5923 4125 8376 789 997 1642 1906 2572 2744 1866 1680
4039 3052 6366 4018 2438 1012 5027 1583 7655 1687 149 6 320 12 380 14 207 6
1200 -3 1425 -14z"/>
<path d="M80135 158759 c-2801 -89 -5466 -499 -8105 -1245 -5026 -1421 -9648
-4000 -13500 -7533 -716 -657 -1502 -1447 -2161 -2171 -2715 -2984 -4892
-6492 -6371 -10265 -1820 -4643 -2572 -9587 -2218 -14575 371 -5205 1976
-10294 4668 -14794 2924 -4890 7090 -8983 12012 -11803 4341 -2488 9133 -3964
14110 -4348 907 -70 1479 -90 2540 -90 880 0 1111 5 1770 41 4857 259 9595
1573 13890 3852 4189 2222 7862 5314 10771 9067 2386 3078 4231 6585 5415
10289 1300 4069 1806 8299 1504 12556 -241 3388 -1008 6747 -2264 9919 -1441
3636 -3523 7011 -6130 9936 -831 931 -1780 1880 -2716 2714 -2707 2412 -5776
4359 -9120 5786 -3070 1309 -6343 2155 -9670 2499 -713 74 -1301 116 -2205
157 -300 14 -1873 20 -2220 8z m1955 -11159 c2196 -109 4153 -475 6165 -1154
1360 -458 2712 -1067 3965 -1786 2622 -1503 4922 -3538 6727 -5951 820 -1096
1502 -2200 2106 -3409 496 -991 862 -1873 1207 -2910 620 -1858 980 -3713
1105 -5680 54 -862 54 -1859 0 -2735 -231 -3712 -1370 -7276 -3334 -10430
-2319 -3725 -5729 -6709 -9726 -8512 -3738 -1687 -7852 -2313 -11905 -1812
-3100 383 -6072 1405 -8740 3007 -2153 1293 -4066 2932 -5681 4867 -1332 1595
-2461 3432 -3305 5372 -1034 2380 -1657 5010 -1804 7623 -42 761 -42 1763 0
2505 191 3314 1109 6529 2688 9415 1194 2184 2742 4154 4567 5815 3612 3288
8230 5300 13115 5715 410 35 779 55 1310 74 188 7 1339 -4 1540 -14z"/>
<path d="M119755 110063 c-141 -9 -452 -49 -620 -78 -990 -176 -1883 -602
-2670 -1276 -160 -137 -466 -444 -597 -599 -374 -443 -688 -965 -892 -1480
-85 -217 -11218 -29497 -11262 -29620 -341 -962 -404 -2032 -178 -3042 195
-879 596 -1684 1183 -2378 138 -164 433 -463 594 -603 261 -227 596 -466 887
-632 74 -43 2725 -1372 5890 -2954 4511 -2256 5795 -2893 5938 -2950 1147
-456 2337 -530 3522 -220 568 149 1156 412 1645 737 422 280 883 695 1216
1092 492 589 880 1337 1082 2086 131 485 186 871 194 1362 9 525 -34 930 -147
1409 -336 1414 -1253 2676 -2505 3445 -213 131 -494 273 -3697 1872 l-3367
1681 4694 12345 c2582 6789 4715 12405 4740 12480 132 400 215 790 261 1226
25 234 25 818 1 1049 -36 333 -84 603 -157 880 -212 811 -584 1541 -1109 2175
-125 151 -553 578 -711 710 -905 753 -1983 1190 -3159 1280 -122 9 -652 11
-776 3z"/>
<path d="M91910 63989 c-946 -75 -1862 -388 -2645 -904 -858 -566 -1571 -1392
-1997 -2316 -260 -566 -412 -1116 -485 -1759 -25 -225 -25 -885 0 -1125 130
-1216 623 -2317 1440 -3214 132 -145 762 -759 1162 -1133 2623 -2453 5536
-4585 8685 -6355 1549 -871 3220 -1681 4865 -2360 4920 -2030 10138 -3169
15455 -3373 1064 -41 2387 -41 3440 0 4080 159 8054 854 11940 2090 3197 1017
6273 2391 9195 4110 2638 1552 5168 3417 7445 5489 712 649 1511 1424 1716
1665 768 904 1214 1970 1320 3156 19 221 22 678 5 890 -117 1424 -736 2708
-1771 3668 -694 644 -1532 1097 -2445 1322 -332 82 -617 127 -960 151 -217 15
-737 6 -935 -16 -899 -99 -1695 -376 -2435 -848 -360 -229 -599 -425 -1023
-839 -1163 -1137 -2263 -2080 -3504 -3006 -2378 -1774 -4941 -3211 -7693
-4311 -3480 -1392 -7175 -2198 -10915 -2381 -1032 -50 -2196 -52 -3210 -5
-5154 241 -10145 1637 -14670 4103 -1935 1054 -3766 2300 -5465 3717 -746 623
-1348 1169 -2085 1890 -298 292 -437 415 -655 579 -828 624 -1736 982 -2795
1102 -171 19 -799 28 -980 13z"/>
</g>
</svg>
